<svg xmlns="http://www.w3.org/2000/svg" width="512" height="512" viewBox="0 0 512 512" version="1.1"><path d="M 202.174 418.314 C 199.195 421.486, 199.261 426.957, 202.314 429.826 L 204.629 432 256.140 432 L 307.651 432 309.826 429.686 C 312.805 426.514, 312.739 421.043, 309.686 418.174 L 307.371 416 255.860 416 L 204.349 416 202.174 418.314 M 210.174 450.314 C 207.195 453.486, 207.261 458.957, 210.314 461.826 C 212.618 463.989, 212.842 464, 256.140 464 L 299.651 464 301.826 461.686 C 304.805 458.514, 304.739 453.043, 301.686 450.174 C 299.382 448.011, 299.158 448, 255.860 448 L 212.349 448 210.174 450.314 M 224 481.175 C 224 481.822, 225.579 485.547, 227.509 489.453 C 242.352 519.492, 269.583 519.624, 284.354 489.730 C 286.359 485.671, 288 481.822, 288 481.175 C 288 480.299, 279.850 480, 256 480 C 232.150 480, 224 480.299, 224 481.175" stroke="none" fill="#3c4453" fill-rule="evenodd"/><path d="M 250.174 2.314 C 248.011 4.618, 248 4.842, 248 48.140 L 248 91.651 250.314 93.826 C 253.486 96.805, 258.957 96.739, 261.826 93.686 C 263.989 91.382, 264 91.158, 264 47.860 L 264 4.349 261.686 2.174 C 258.514 -0.805, 253.043 -0.739, 250.174 2.314 M 77.465 72.952 C 74.622 74.104, 73.118 76.158, 72.366 79.918 C 71.738 83.061, 72.513 83.940, 102.111 113.657 C 118.825 130.438, 133.534 144.578, 134.798 145.078 C 140.425 147.304, 147.285 140.365, 145.045 134.713 C 143.578 131.010, 83.680 71.992, 81.462 72.063 C 80.383 72.098, 78.584 72.498, 77.465 72.952 M 398.343 102.111 C 381.562 118.825, 367.437 133.496, 366.955 134.713 C 364.879 139.950, 370.878 146.822, 376.331 145.453 C 377.622 145.129, 392.539 130.977, 409.479 114.005 C 439.785 83.641, 440.269 83.093, 439.615 79.826 C 438.773 75.613, 436.387 73.227, 432.174 72.385 C 428.910 71.732, 428.351 72.223, 398.343 102.111 M 232.200 113.643 C 224.400 117.555, 221.086 124.083, 219.439 138.772 C 218.656 145.766, 218.940 145.449, 210.099 149.214 L 203.698 151.941 197.024 147.087 C 188.386 140.804, 184.997 139.098, 179.708 138.373 C 171.986 137.315, 166.849 140.464, 152.566 155.010 C 145.634 162.071, 139.295 169.442, 138.481 171.392 C 136.826 175.352, 136.525 183.619, 137.903 187.244 C 138.399 188.550, 141.541 193.249, 144.884 197.686 L 150.963 205.752 148.578 211.614 C 147.266 214.838, 145.587 217.782, 144.846 218.156 C 144.106 218.530, 139.108 219.498, 133.740 220.307 C 123.176 221.899, 119.336 223.916, 114.820 230.248 C 112.596 233.366, 112.487 234.375, 112.195 254.694 C 111.933 272.922, 112.125 276.351, 113.562 279.194 C 117.640 287.259, 122.979 290.382, 135.594 292.081 C 140.492 292.741, 144.900 293.640, 145.388 294.079 C 145.877 294.518, 147.549 297.893, 149.105 301.580 L 151.932 308.282 146.106 316.391 C 142.902 320.851, 139.713 326.244, 139.021 328.375 C 137.461 333.179, 138.310 340.148, 140.984 344.474 C 144.065 349.459, 167.689 371.972, 171.518 373.572 C 175.370 375.182, 183.664 375.458, 187.244 374.097 C 188.550 373.601, 193.255 370.455, 197.698 367.106 L 205.778 361.018 211.139 363.172 C 214.087 364.356, 217.001 365.815, 217.614 366.413 C 218.227 367.011, 219.267 371.508, 219.924 376.406 C 221.616 389.017, 224.739 394.359, 232.806 398.438 C 235.650 399.876, 239.084 400.067, 257.387 399.805 L 278.662 399.500 282.261 396.752 C 288.421 392.050, 290.122 388.705, 291.708 378.168 C 292.509 372.851, 293.465 367.909, 293.832 367.186 C 294.199 366.464, 297.605 364.565, 301.401 362.966 L 308.302 360.059 315.309 365.156 C 327.949 374.349, 334.289 375.804, 343.228 371.562 C 347.917 369.337, 371.685 344.999, 373.566 340.495 C 375.181 336.632, 375.460 328.341, 374.097 324.756 C 373.601 323.450, 370.459 318.751, 367.116 314.314 L 361.037 306.248 363.422 300.386 C 364.734 297.162, 366.413 294.218, 367.154 293.844 C 367.894 293.470, 372.892 292.502, 378.260 291.693 C 388.824 290.101, 392.664 288.084, 397.180 281.752 C 399.441 278.582, 399.500 277.932, 399.500 256 C 399.500 234.068, 399.441 233.418, 397.180 230.248 C 392.664 223.916, 388.824 221.899, 378.260 220.307 C 372.892 219.498, 367.909 218.535, 367.186 218.168 C 366.464 217.801, 364.567 214.399, 362.970 210.609 L 360.068 203.718 365.894 195.609 C 374.506 183.623, 375.763 177.624, 371.530 168.704 C 369.329 164.066, 344.964 140.301, 340.495 138.434 C 336.019 136.563, 328.873 136.609, 324.258 138.536 C 322.236 139.382, 317.336 142.515, 313.371 145.500 L 306.160 150.927 300.342 148.560 C 297.142 147.258, 294.218 145.587, 293.844 144.846 C 293.470 144.106, 292.502 139.108, 291.693 133.740 C 290.101 123.176, 288.084 119.336, 281.752 114.820 C 278.624 112.589, 277.679 112.490, 257 112.244 C 238.642 112.025, 235.018 112.230, 232.200 113.643 M 239.696 130.726 C 239.447 131.152, 238.489 137.125, 237.567 144 C 236.644 150.875, 235.499 157.458, 235.021 158.629 C 234.394 160.167, 232.118 161.374, 226.826 162.972 C 222.797 164.190, 216.109 166.944, 211.964 169.093 C 207.819 171.242, 203.605 173, 202.599 173 C 201.593 173, 195.811 169.358, 189.752 164.907 C 181.588 158.909, 178.315 157.032, 177.117 157.657 C 176.228 158.120, 170.836 163.303, 165.135 169.174 L 154.770 179.847 163.882 191.952 L 172.994 204.056 169.087 211.827 C 166.938 216.102, 164.195 222.840, 162.992 226.801 C 161.789 230.762, 160.293 234.319, 159.668 234.705 C 159.043 235.092, 152.224 236.329, 144.516 237.454 L 130.500 239.500 130.500 256 L 130.500 272.500 144.516 274.546 C 152.224 275.671, 159.043 276.908, 159.668 277.295 C 160.293 277.681, 161.784 281.260, 162.982 285.249 C 164.180 289.237, 167.157 296.279, 169.598 300.897 C 174.728 310.603, 175.374 308.080, 163.720 323.872 C 158.595 330.817, 157.023 333.666, 157.652 334.872 C 158.118 335.767, 163.302 341.163, 169.172 346.863 L 179.843 357.226 191.141 348.613 C 197.355 343.876, 203.251 340, 204.244 340 C 205.237 340, 209.096 341.534, 212.818 343.408 C 216.540 345.283, 222.830 347.802, 226.795 349.006 C 230.759 350.210, 234.319 351.707, 234.705 352.332 C 235.092 352.957, 236.329 359.776, 237.454 367.484 L 239.500 381.500 256 381.500 L 272.500 381.500 274.546 367.484 C 275.671 359.776, 276.908 352.957, 277.295 352.332 C 277.681 351.707, 281.238 350.211, 285.199 349.008 C 289.160 347.805, 295.901 345.061, 300.178 342.910 C 304.456 340.760, 308.692 339, 309.593 339 C 310.494 339, 316.189 342.642, 322.248 347.093 C 330.412 353.091, 333.685 354.968, 334.883 354.343 C 335.772 353.880, 341.164 348.697, 346.865 342.826 L 357.230 332.153 348.118 320.048 L 339.006 307.944 342.913 300.173 C 345.062 295.898, 347.805 289.160, 349.008 285.199 C 350.211 281.238, 351.707 277.681, 352.332 277.295 C 352.957 276.908, 359.776 275.671, 367.484 274.546 L 381.500 272.500 381.500 256 L 381.500 239.500 367.484 237.454 C 359.776 236.329, 352.957 235.092, 352.332 234.705 C 351.707 234.319, 350.211 230.762, 349.008 226.801 C 347.805 222.840, 344.952 215.976, 342.669 211.549 C 340.386 207.122, 338.388 203.234, 338.228 202.908 C 338.069 202.582, 341.816 197.003, 346.556 190.510 C 352.907 181.810, 354.953 178.283, 354.337 177.102 C 353.877 176.221, 348.691 170.830, 342.813 165.122 L 332.126 154.744 320.753 163.372 C 314.498 168.117, 308.609 172, 307.665 172 C 306.722 172, 302.904 170.466, 299.182 168.592 C 295.460 166.717, 289.170 164.198, 285.205 162.994 C 281.241 161.790, 277.681 160.293, 277.295 159.668 C 276.908 159.043, 275.671 152.224, 274.546 144.516 L 272.500 130.500 256.324 130.226 C 247.427 130.075, 239.945 130.300, 239.696 130.726 M 239.500 195.872 C 218.228 202.006, 201.037 219.532, 195.586 240.644 C 193.542 248.561, 193.542 263.439, 195.586 271.356 C 199.801 287.679, 212.021 303.152, 226.733 310.794 C 236.919 316.084, 244.701 318, 256 318 C 273.022 318, 288.127 311.804, 299.966 299.966 C 311.804 288.127, 318 273.022, 318 256 C 318 244.701, 316.084 236.919, 310.793 226.732 C 303.104 211.928, 287.782 199.827, 271.356 195.586 C 263.144 193.466, 247.354 193.608, 239.500 195.872 M 244.949 213.826 C 223.632 219.391, 209.066 241.605, 212.868 262.750 C 216.095 280.695, 229.365 294.720, 246.784 298.595 C 276.435 305.192, 304.372 278.671, 299.063 248.966 C 297.284 239.010, 293.070 231.206, 285.877 224.546 C 278.770 217.967, 274.322 215.524, 265.781 213.511 C 257.778 211.624, 253.113 211.694, 244.949 213.826 M 2.174 250.314 C -0.805 253.486, -0.739 258.957, 2.314 261.826 C 4.618 263.989, 4.842 264, 48.140 264 L 91.651 264 93.826 261.686 C 96.805 258.514, 96.739 253.043, 93.686 250.174 C 91.382 248.011, 91.158 248, 47.860 248 L 4.349 248 2.174 250.314 M 418.174 250.314 C 415.195 253.486, 415.261 258.957, 418.314 261.826 C 420.618 263.989, 420.842 264, 464.140 264 L 507.651 264 509.826 261.686 C 512.805 258.514, 512.739 253.043, 509.686 250.174 C 507.382 248.011, 507.158 248, 463.860 248 L 420.349 248 418.174 250.314" stroke="none" fill="#247bbc" fill-rule="evenodd"/></svg>